<svg xmlns="http://www.w3.org/2000/svg" viewBox="0 0 1200 630" fill="none">
  <rect width="1200" height="630" fill="#06090E"/>
  <text x="600" y="44" font-family="system-ui,sans-serif" font-size="22" font-weight="700" fill="#E4E8ED" text-anchor="middle">Programmatic SEO: Hub &amp; Spoke Architecture</text>
  <text x="600" y="66" font-family="system-ui,sans-serif" font-size="13" fill="#7A8899" text-anchor="middle">Keyword research to rankings, built at scale</text>

  <!-- Connection lines -->
  <g stroke="#1E2A38" stroke-width="1.5" stroke-dasharray="4 4">
    <line x1="600" y1="230" x2="300" y2="140"/>
    <line x1="600" y1="230" x2="600" y2="110"/>
    <line x1="600" y1="230" x2="900" y2="140"/>
    <line x1="600" y1="230" x2="220" y2="320"/>
    <line x1="600" y1="230" x2="980" y2="320"/>
    <line x1="600" y1="230" x2="380" y2="430"/>
    <line x1="600" y1="230" x2="820" y2="430"/>
  </g>

  <!-- Hub -->
  <g>
    <circle cx="600" cy="230" r="68" fill="#0C1118" stroke="#00C2E0" stroke-width="2.5"/>
    <circle cx="600" cy="230" r="56" fill="rgba(0,194,224,0.08)"/>
    <text x="600" y="220" font-family="system-ui,sans-serif" font-size="14" font-weight="800" fill="#00C2E0" text-anchor="middle">HUB PAGE</text>
    <text x="600" y="242" font-family="system-ui,sans-serif" font-size="11" fill="#E4E8ED" text-anchor="middle">Topical authority</text>
    <text x="600" y="258" font-family="system-ui,sans-serif" font-size="11" fill="#7A8899" text-anchor="middle">+ internal links</text>
  </g>

  <!-- Spokes -->
  <g font-family="system-ui,sans-serif" text-anchor="middle">
    <g transform="translate(230,90)">
      <rect width="140" height="58" rx="8" fill="#0C1118" stroke="#E8B931" stroke-width="1.5"/>
      <text x="70" y="24" font-size="11" font-weight="700" fill="#E8B931">Keyword Research</text>
      <text x="70" y="42" font-size="10" fill="#7A8899">Intent mapping</text>
    </g>
    <g transform="translate(530,80)">
      <rect width="140" height="58" rx="8" fill="#0C1118" stroke="#E8B931" stroke-width="1.5"/>
      <text x="70" y="24" font-size="11" font-weight="700" fill="#E8B931">Content Template</text>
      <text x="70" y="42" font-size="10" fill="#7A8899">Structured data</text>
    </g>
    <g transform="translate(830,90)">
      <rect width="140" height="58" rx="8" fill="#0C1118" stroke="#E8B931" stroke-width="1.5"/>
      <text x="70" y="24" font-size="11" font-weight="700" fill="#E8B931">Schema Markup</text>
      <text x="70" y="42" font-size="10" fill="#7A8899">Rich results</text>
    </g>
    <g transform="translate(150,290)">
      <rect width="140" height="58" rx="8" fill="#0C1118" stroke="#00C2E0" stroke-width="1.5"/>
      <text x="70" y="24" font-size="11" font-weight="700" fill="#00C2E0">Technical SEO</text>
      <text x="70" y="42" font-size="10" fill="#7A8899">Core Web Vitals</text>
    </g>
    <g transform="translate(910,290)">
      <rect width="140" height="58" rx="8" fill="#0C1118" stroke="#00C2E0" stroke-width="1.5"/>
      <text x="70" y="24" font-size="11" font-weight="700" fill="#00C2E0">Internal Linking</text>
      <text x="70" y="42" font-size="10" fill="#7A8899">Hub reinforcement</text>
    </g>
    <g transform="translate(310,400)">
      <rect width="140" height="58" rx="8" fill="#0C1118" stroke="#34D399" stroke-width="1.5"/>
      <text x="70" y="24" font-size="11" font-weight="700" fill="#34D399">Index + Crawl</text>
      <text x="70" y="42" font-size="10" fill="#7A8899">GSC monitoring</text>
    </g>
    <g transform="translate(750,400)">
      <rect width="140" height="58" rx="8" fill="#0C1118" stroke="#34D399" stroke-width="1.5"/>
      <text x="70" y="24" font-size="11" font-weight="700" fill="#34D399">Rankings</text>
      <text x="70" y="42" font-size="10" fill="#7A8899">Position tracking</text>
    </g>
  </g>

  <!-- Stats bar -->
  <g transform="translate(40,490)">
    <rect width="1120" height="100" rx="10" fill="#0C1118" stroke="#1E2A38" stroke-width="1"/>
    <g transform="translate(80,16)">
      <text x="0" y="28" font-family="system-ui,sans-serif" font-size="32" font-weight="800" fill="#00C2E0">363K</text>
      <text x="0" y="52" font-family="system-ui,sans-serif" font-size="12" fill="#7A8899">Impressions in 30 days</text>
    </g>
    <g transform="translate(340,16)">
      <text x="0" y="28" font-family="system-ui,sans-serif" font-size="32" font-weight="800" fill="#E4E8ED">322</text>
      <text x="0" y="52" font-family="system-ui,sans-serif" font-size="12" fill="#7A8899">Pages built at scale</text>
    </g>
    <g transform="translate(580,16)">
      <text x="0" y="28" font-family="system-ui,sans-serif" font-size="32" font-weight="800" fill="#E8B931">8.8</text>
      <text x="0" y="52" font-family="system-ui,sans-serif" font-size="12" fill="#7A8899">Average SERP position</text>
    </g>
    <g transform="translate(820,16)">
      <text x="0" y="28" font-family="system-ui,sans-serif" font-size="32" font-weight="800" fill="#34D399">30 days</text>
      <text x="0" y="52" font-family="system-ui,sans-serif" font-size="12" fill="#7A8899">Time to first traffic</text>
    </g>
  </g>
</svg>
