<svg xmlns="http://www.w3.org/2000/svg" viewBox="0 0 1200 630" fill="none">
  <rect width="1200" height="630" fill="#06090E"/>
  <rect x="40" y="40" width="1120" height="550" rx="16" fill="#0D1117" stroke="#0cce6b" stroke-opacity="0.15"/>
  <text x="100" y="100" fill="#0cce6b" font-family="sans-serif" font-size="28" font-weight="700">Local Web Design</text>
  <text x="100" y="135" fill="rgba(248,250,252,0.5)" font-family="sans-serif" font-size="16">Performance metrics for your market</text>

  <rect x="80" y="170" width="340" height="110" rx="10" fill="#06090E" stroke="#0cce6b" stroke-opacity="0.15"/>
  <text x="100" y="210" fill="#0cce6b" font-family="monospace" font-size="28" font-weight="700">&lt;1s</text>
  <text x="100" y="245" fill="rgba(248,250,252,0.4)" font-family="sans-serif" font-size="14">Load time</text>

  <rect x="440" y="170" width="340" height="110" rx="10" fill="#06090E" stroke="#34D399" stroke-opacity="0.15"/>
  <text x="460" y="210" fill="#34D399" font-family="monospace" font-size="28" font-weight="700">95+</text>
  <text x="460" y="245" fill="rgba(248,250,252,0.4)" font-family="sans-serif" font-size="14">PageSpeed score</text>

  <rect x="800" y="170" width="340" height="110" rx="10" fill="#06090E" stroke="#F8FAFC" stroke-opacity="0.08"/>
  <text x="820" y="210" fill="#F8FAFC" font-family="monospace" font-size="28" font-weight="700">2x</text>
  <text x="820" y="245" fill="rgba(248,250,252,0.4)" font-family="sans-serif" font-size="14">Industry CTR</text>

  <rect x="80" y="310" width="1040" height="180" rx="10" fill="#06090E"/>
  <text x="100" y="350" fill="#F8FAFC" font-family="sans-serif" font-size="15" font-weight="600">Services</text>
  <rect x="100" y="370" width="280" height="10" rx="4" fill="#0cce6b" opacity="0.6"/>
  <text x="400" y="380" fill="rgba(248,250,252,0.4)" font-family="sans-serif" font-size="12">Web Design</text>
  <rect x="100" y="395" width="240" height="10" rx="4" fill="#0cce6b" opacity="0.45"/>
  <text x="360" y="405" fill="rgba(248,250,252,0.4)" font-family="sans-serif" font-size="12">SEO</text>
  <rect x="100" y="420" width="200" height="10" rx="4" fill="#34D399" opacity="0.35"/>
  <text x="320" y="430" fill="rgba(248,250,252,0.4)" font-family="sans-serif" font-size="12">Paid Ads</text>
  <rect x="100" y="445" width="160" height="10" rx="4" fill="#34D399" opacity="0.25"/>
  <text x="280" y="455" fill="rgba(248,250,252,0.4)" font-family="sans-serif" font-size="12">Conversion</text>

  <text x="1060" y="560" text-anchor="end" fill="rgba(248,250,252,0.3)" font-family="monospace" font-size="11">SharpPages</text>
</svg>